# xmcd
#
# Track frame offsets:
#	150
#	43383
#	76818
#	92944
#	141254
#	186736
#
# Disc length: 3648 seconds
#
# Revision: 0
# Processed by: cddbd v1.5.2PL0 Copyright (c) Steve Scherf et al.
# Submitted via: audiograbber 1.83.01
#
DISCID=570e3e06
DTITLE=TEN YEARS AFTER - LIVE AT THE FILLMORE EAST 1970 CD 1
DYEAR=1970
DGENRE=
TTITLE0=Love Like A Man
TTITLE1=Good Morning Little Schoolgirl
TTITLE2=Working On The Road
TTITLE3=The Hobbit
TTITLE4=50000 Miles Beneath My Brain
TTITLE5=Skoobly-Oobly-Doobob, I Can't Keep From Crying Sometimes, Extension On 
TTITLE5=One Chord
EXTD=
EXTT0=
EXTT1=
EXTT2=
EXTT3=
EXTT4=
EXTT5=
PLAYORDER=
